<svg xmlns="http://www.w3.org/2000/svg" xmlns:xlink="http://www.w3.org/1999/xlink" contentStyleType="text/css" height="166px" preserveAspectRatio="none" style="width:192px;height:166px;background:#FFFFFF;" version="1.1" viewBox="0 0 192 166" width="192px" zoomAndPan="magnify"><defs/><g><!--class AssociationStatus--><g id="elem_AssociationStatus"><rect codeLine="1" fill="#F1F1F1" height="145.7813" id="AssociationStatus" rx="2.5" ry="2.5" style="stroke:#181818;stroke-width:0.5;" width="171.749" x="7" y="7"/><ellipse cx="28.9407" cy="23" fill="#EB937F" rx="11" ry="11" style="stroke:#181818;stroke-width:1;"/><path d="M33.0501,29 L25.3313,29 L25.3313,16.6094 L33.0501,16.6094 L33.0501,18.7656 L27.7845,18.7656 L27.7845,21.4375 L32.5501,21.4375 L32.5501,23.5938 L27.7845,23.5938 L27.7845,26.8438 L33.0501,26.8438 L33.0501,29 Z " fill="#000000"/><text fill="#000000" font-family="sans-serif" font-size="14" lengthAdjust="spacing" textLength="124.3252" x="44.4831" y="27.8467">AssociationStatus</text><line style="stroke:#181818;stroke-width:0.5;" x1="8" x2="177.749" y1="39" y2="39"/><text fill="#000000" font-family="sans-serif" font-size="14" lengthAdjust="spacing" textLength="83.2549" x="13" y="55.9951">NoError= 0,</text><text fill="#000000" font-family="sans-serif" font-size="14" lengthAdjust="spacing" textLength="159.749" x="13" y="72.292">DuplicatedAssociation,</text><text fill="#000000" font-family="sans-serif" font-size="14" lengthAdjust="spacing" textLength="104.1387" x="13" y="88.5889">UserNotFound,</text><text fill="#000000" font-family="sans-serif" font-size="14" lengthAdjust="spacing" textLength="113.1006" x="13" y="104.8857">EntityNotFound,</text><text fill="#000000" font-family="sans-serif" font-size="14" lengthAdjust="spacing" textLength="103.2021" x="13" y="121.1826">NoAssociation,</text><text fill="#000000" font-family="sans-serif" font-size="14" lengthAdjust="spacing" textLength="130.6963" x="13" y="137.4795">InvalidAssociation,</text><line style="stroke:#181818;stroke-width:0.5;" x1="8" x2="177.749" y1="144.7813" y2="144.7813"/></g><!--SRC=[IyqhpLLmB2xEJyvCBCdCpmikIImfBLQevb800hzyrwAY_29R1GCTCD-bj20dCpcn93K5IGT4AhGujSWllyGjlpGl1IBYcbUIMLA9AkQNZw7HCwyiCISJrS1Q0000]--></g></svg>