<svg xmlns="http://www.w3.org/2000/svg" xmlns:xlink="http://www.w3.org/1999/xlink" contentStyleType="text/css" height="186px" preserveAspectRatio="none" style="width:211px;height:186px;background:#FFFFFF;" version="1.1" viewBox="0 0 211 186" width="211px" zoomAndPan="magnify"><defs/><g><!--class Developer--><g id="elem_Developer"><rect codeLine="1" fill="#F1F1F1" height="64.2969" id="Developer" rx="2.5" ry="2.5" style="stroke:#181818;stroke-width:0.5;" width="197.3838" x="7" y="115"/><ellipse cx="65.4404" cy="131" fill="#ADD1B2" rx="11" ry="11" style="stroke:#181818;stroke-width:1;"/><path d="M68.4092,136.6406 Q67.8311,136.9375 67.1904,137.0781 Q66.5498,137.2344 65.8467,137.2344 Q63.3467,137.2344 62.0186,135.5938 Q60.7061,133.9375 60.7061,130.8125 Q60.7061,127.6875 62.0186,126.0313 Q63.3467,124.375 65.8467,124.375 Q66.5498,124.375 67.1904,124.5313 Q67.8467,124.6875 68.4092,124.9844 L68.4092,127.7031 Q67.7842,127.125 67.1904,126.8594 Q66.5967,126.5781 65.9717,126.5781 Q64.6279,126.5781 63.9404,127.6563 Q63.2529,128.7188 63.2529,130.8125 Q63.2529,132.9063 63.9404,133.9844 Q64.6279,135.0469 65.9717,135.0469 Q66.5967,135.0469 67.1904,134.7813 Q67.7842,134.5 68.4092,133.9219 L68.4092,136.6406 Z " fill="#000000"/><text fill="#000000" font-family="sans-serif" font-size="14" lengthAdjust="spacing" textLength="72.0029" x="85.9404" y="135.8467">Developer</text><line style="stroke:#181818;stroke-width:0.5;" x1="8" x2="203.3838" y1="147" y2="147"/><line style="stroke:#181818;stroke-width:0.5;" x1="8" x2="203.3838" y1="155" y2="155"/><ellipse cx="18" cy="168.6484" fill="#84BE84" rx="3" ry="3" style="stroke:#038048;stroke-width:1;"/><text fill="#000000" font-family="sans-serif" font-size="14" lengthAdjust="spacing" textLength="171.3838" x="27" y="171.9951">Developer(userId:string)</text></g><!--class User--><g id="elem_User"><rect fill="#F1F1F1" height="48" id="User" rx="2.5" ry="2.5" style="stroke:#181818;stroke-width:0.5;" width="63.9102" x="73.5" y="7"/><ellipse cx="88.5" cy="23" fill="#ADD1B2" rx="11" ry="11" style="stroke:#181818;stroke-width:1;"/><path d="M91.4688,28.6406 Q90.8906,28.9375 90.25,29.0781 Q89.6094,29.2344 88.9063,29.2344 Q86.4063,29.2344 85.0781,27.5938 Q83.7656,25.9375 83.7656,22.8125 Q83.7656,19.6875 85.0781,18.0313 Q86.4063,16.375 88.9063,16.375 Q89.6094,16.375 90.25,16.5313 Q90.9063,16.6875 91.4688,16.9844 L91.4688,19.7031 Q90.8438,19.125 90.25,18.8594 Q89.6563,18.5781 89.0313,18.5781 Q87.6875,18.5781 87,19.6563 Q86.3125,20.7188 86.3125,22.8125 Q86.3125,24.9063 87,25.9844 Q87.6875,27.0469 89.0313,27.0469 Q89.6563,27.0469 90.25,26.7813 Q90.8438,26.5 91.4688,25.9219 L91.4688,28.6406 Z " fill="#000000"/><text fill="#000000" font-family="sans-serif" font-size="14" lengthAdjust="spacing" textLength="31.9102" x="102.5" y="27.8467">User</text><line style="stroke:#181818;stroke-width:0.5;" x1="74.5" x2="136.4102" y1="39" y2="39"/><line style="stroke:#181818;stroke-width:0.5;" x1="74.5" x2="136.4102" y1="47" y2="47"/></g><!--reverse link User to Developer--><g id="link_User_Developer"><path codeLine="4" d="M105.5,73.07 C105.5,90.25 105.5,95.88 105.5,114.75 " fill="none" id="User-backto-Developer" style="stroke:#181818;stroke-width:1;"/><polygon fill="none" points="105.5,55.07,99.5,73.07,111.5,73.07,105.5,55.07" style="stroke:#181818;stroke-width:1;"/></g><!--SRC=[Iyv9B2vMS4ajIyt9BqWjKgZcKW02ROI8HcbnQf5dYbLnIL5cNhecLorNA510mQP6LnUX2000]--></g></svg>