<svg xmlns="http://www.w3.org/2000/svg" xmlns:xlink="http://www.w3.org/1999/xlink" contentStyleType="text/css" height="183px" preserveAspectRatio="none" style="width:138px;height:183px;background:#FFFFFF;" version="1.1" viewBox="0 0 138 183" width="138px" zoomAndPan="magnify"><defs/><g><!--class EntityStatus--><g id="elem_EntityStatus"><rect codeLine="1" fill="#F1F1F1" height="162.0781" id="EntityStatus" rx="2.5" ry="2.5" style="stroke:#181818;stroke-width:0.5;" width="117.4834" x="7" y="7"/><ellipse cx="22" cy="23" fill="#EB937F" rx="11" ry="11" style="stroke:#181818;stroke-width:1;"/><path d="M26.1094,29 L18.3906,29 L18.3906,16.6094 L26.1094,16.6094 L26.1094,18.7656 L20.8438,18.7656 L20.8438,21.4375 L25.6094,21.4375 L25.6094,23.5938 L20.8438,23.5938 L20.8438,26.8438 L26.1094,26.8438 L26.1094,29 Z " fill="#000000"/><text fill="#000000" font-family="sans-serif" font-size="14" lengthAdjust="spacing" textLength="85.4834" x="36" y="27.8467">EntityStatus</text><line style="stroke:#181818;stroke-width:0.5;" x1="8" x2="123.4834" y1="39" y2="39"/><text fill="#000000" font-family="sans-serif" font-size="14" lengthAdjust="spacing" textLength="60.0742" x="13" y="55.9951">New= 0,</text><text fill="#000000" font-family="sans-serif" font-size="14" lengthAdjust="spacing" textLength="73.6299" x="13" y="72.292">Ready= 1,</text><text fill="#000000" font-family="sans-serif" font-size="14" lengthAdjust="spacing" textLength="103.1475" x="13" y="88.5889">InProgress= 2,</text><text fill="#000000" font-family="sans-serif" font-size="14" lengthAdjust="spacing" textLength="93.1191" x="13" y="104.8857">InReview= 3,</text><text fill="#000000" font-family="sans-serif" font-size="14" lengthAdjust="spacing" textLength="66.3701" x="13" y="121.1826">Done= 4,</text><text fill="#000000" font-family="sans-serif" font-size="14" lengthAdjust="spacing" textLength="76.5625" x="13" y="137.4795">Closed= 5,</text><text fill="#000000" font-family="sans-serif" font-size="14" lengthAdjust="spacing" textLength="98.3555" x="13" y="153.7764">Cancelled= 6,</text><line style="stroke:#181818;stroke-width:0.5;" x1="8" x2="123.4834" y1="161.0781" y2="161.0781"/></g><!--SRC=[IyqhpLLmpIl9BAaCBaaiAIrMgEPI00A_r79R1GCTC3ieDJ6bqbR14CBpp0ieoaylIYqkjbKmWWa5fPPbWdGOGmHSylDIRHLC81pddFpYr1HR1LCeDp4lEJKd1oHYfiDL2m00]--></g></svg>