<svg xmlns="http://www.w3.org/2000/svg" xmlns:xlink="http://www.w3.org/1999/xlink" contentStyleType="text/css" height="166px" preserveAspectRatio="none" style="width:143px;height:166px;background:#FFFFFF;" version="1.1" viewBox="0 0 143 166" width="143px" zoomAndPan="magnify"><defs/><g><!--class EntityPriority--><g id="elem_EntityPriority"><rect codeLine="1" fill="#F1F1F1" height="145.7813" id="EntityPriority" rx="2.5" ry="2.5" style="stroke:#181818;stroke-width:0.5;" width="122.9453" x="7" y="7"/><ellipse cx="22" cy="23" fill="#EB937F" rx="11" ry="11" style="stroke:#181818;stroke-width:1;"/><path d="M26.1094,29 L18.3906,29 L18.3906,16.6094 L26.1094,16.6094 L26.1094,18.7656 L20.8438,18.7656 L20.8438,21.4375 L25.6094,21.4375 L25.6094,23.5938 L20.8438,23.5938 L20.8438,26.8438 L26.1094,26.8438 L26.1094,29 Z " fill="#000000"/><text fill="#000000" font-family="sans-serif" font-size="14" lengthAdjust="spacing" textLength="90.9453" x="36" y="27.8467">EntityPriority</text><line style="stroke:#181818;stroke-width:0.5;" x1="8" x2="128.9453" y1="39" y2="39"/><text fill="#000000" font-family="sans-serif" font-size="14" lengthAdjust="spacing" textLength="78.75" x="13" y="55.9951">Lowest= 0,</text><text fill="#000000" font-family="sans-serif" font-size="14" lengthAdjust="spacing" textLength="32.2656" x="13" y="72.292">Low,</text><text fill="#000000" font-family="sans-serif" font-size="14" lengthAdjust="spacing" textLength="60.4297" x="13" y="88.5889">Medium,</text><text fill="#000000" font-family="sans-serif" font-size="14" lengthAdjust="spacing" textLength="36.627" x="13" y="104.8857">High,</text><text fill="#000000" font-family="sans-serif" font-size="14" lengthAdjust="spacing" textLength="68.8584" x="13" y="121.1826">VeryHigh,</text><text fill="#000000" font-family="sans-serif" font-size="14" lengthAdjust="spacing" textLength="53.416" x="13" y="137.4795">Critical,</text><line style="stroke:#181818;stroke-width:0.5;" x1="8" x2="128.9453" y1="144.7813" y2="144.7813"/></g><!--SRC=[IyqhpLLmpIl9BAaCAChCBmBI2jLS2a3War-UMbnYgs2W0-D26BwfAPcbkH2sHsPw1eGLbbfKYU0v0yt9J4xCqU6g1G00]--></g></svg>