<svg xmlns="http://www.w3.org/2000/svg" xmlns:xlink="http://www.w3.org/1999/xlink" contentStyleType="text/css" height="183px" preserveAspectRatio="none" style="width:153px;height:183px;background:#FFFFFF;" version="1.1" viewBox="0 0 153 183" width="153px" zoomAndPan="magnify"><defs/><g><!--class EntityProperty--><g id="elem_EntityProperty"><rect codeLine="1" fill="#F1F1F1" height="162.0781" id="EntityProperty" rx="2.5" ry="2.5" style="stroke:#181818;stroke-width:0.5;" width="132.666" x="7" y="7"/><ellipse cx="22" cy="23" fill="#EB937F" rx="11" ry="11" style="stroke:#181818;stroke-width:1;"/><path d="M26.1094,29 L18.3906,29 L18.3906,16.6094 L26.1094,16.6094 L26.1094,18.7656 L20.8438,18.7656 L20.8438,21.4375 L25.6094,21.4375 L25.6094,23.5938 L20.8438,23.5938 L20.8438,26.8438 L26.1094,26.8438 L26.1094,29 Z " fill="#000000"/><text fill="#000000" font-family="sans-serif" font-size="14" lengthAdjust="spacing" textLength="100.666" x="36" y="27.8467">EntityProperty</text><line style="stroke:#181818;stroke-width:0.5;" x1="8" x2="138.666" y1="39" y2="39"/><text fill="#000000" font-family="sans-serif" font-size="14" lengthAdjust="spacing" textLength="109.2725" x="13" y="55.9951">Description= 0,</text><text fill="#000000" font-family="sans-serif" font-size="14" lengthAdjust="spacing" textLength="89.9336" x="13" y="72.292">EntityStatus,</text><text fill="#000000" font-family="sans-serif" font-size="14" lengthAdjust="spacing" textLength="95.3955" x="13" y="88.5889">EntityPriority,</text><text fill="#000000" font-family="sans-serif" font-size="14" lengthAdjust="spacing" textLength="93.625" x="13" y="104.8857">CreatedDate,</text><text fill="#000000" font-family="sans-serif" font-size="14" lengthAdjust="spacing" textLength="89.6123" x="13" y="121.1826">StartedDate,</text><text fill="#000000" font-family="sans-serif" font-size="14" lengthAdjust="spacing" textLength="96.2842" x="13" y="137.4795">FinishedDate,</text><text fill="#000000" font-family="sans-serif" font-size="14" lengthAdjust="spacing" textLength="51.4883" x="13" y="153.7764">Report,</text><line style="stroke:#181818;stroke-width:0.5;" x1="8" x2="138.666" y1="161.0781" y2="161.0781"/></g><!--SRC=[IyqhpLLmpIl9BAaCACelI2qggLIevb800fVKukIYp8AIpFmyMmK37R0OH65mIM99QJ6oI41HPduHa8Q8EHUb9fQafhW02OW0K4CHYe1RPbvcSGQoI51gGNvHYGvNBG00]--></g></svg>