<svg xmlns="http://www.w3.org/2000/svg" xmlns:xlink="http://www.w3.org/1999/xlink" contentStyleType="text/css" height="403px" preserveAspectRatio="none" style="width:639px;height:403px;background:#FFFFFF;" version="1.1" viewBox="0 0 639 403" width="639px" zoomAndPan="magnify"><defs/><g><!--class PmsCoreMenu--><g id="elem_PmsCoreMenu"><rect codeLine="1" fill="#F1F1F1" height="382.2031" id="PmsCoreMenu" rx="2.5" ry="2.5" style="stroke:#181818;stroke-width:0.5;" width="618.4912" x="7" y="7"/><ellipse cx="261.7344" cy="27.1328" fill="#ADD1B2" rx="11" ry="11" style="stroke:#181818;stroke-width:1;"/><path d="M264.7031,32.7734 Q264.125,33.0703 263.4844,33.2109 Q262.8438,33.3672 262.1406,33.3672 Q259.6406,33.3672 258.3125,31.7266 Q257,30.0703 257,26.9453 Q257,23.8203 258.3125,22.1641 Q259.6406,20.5078 262.1406,20.5078 Q262.8438,20.5078 263.4844,20.6641 Q264.1406,20.8203 264.7031,21.1172 L264.7031,23.8359 Q264.0781,23.2578 263.4844,22.9922 Q262.8906,22.7109 262.2656,22.7109 Q260.9219,22.7109 260.2344,23.7891 Q259.5469,24.8516 259.5469,26.9453 Q259.5469,29.0391 260.2344,30.1172 Q260.9219,31.1797 262.2656,31.1797 Q262.8906,31.1797 263.4844,30.9141 Q264.0781,30.6328 264.7031,30.0547 L264.7031,32.7734 Z " fill="#000000"/><text fill="#000000" font-family="sans-serif" font-size="12" font-style="italic" lengthAdjust="spacing" textLength="47.7598" x="308.6157" y="23.1387">&#171;static&#187;</text><text fill="#000000" font-family="sans-serif" font-size="14" lengthAdjust="spacing" textLength="100.5225" x="282.2344" y="38.9639">PmsCoreMenu</text><line style="stroke:#181818;stroke-width:0.5;" x1="8" x2="624.4912" y1="47.2656" y2="47.2656"/><rect fill="none" height="6" style="stroke:#C82930;stroke-width:1;" width="6" x="15" y="57.9141"/><text fill="#000000" font-family="sans-serif" font-size="14" lengthAdjust="spacing" text-decoration="underline" textLength="357.7861" x="27" y="64.2607">Header : string &#171;get&#187; = "#### PMS Core! ####"</text><line style="stroke:#181818;stroke-width:0.5;" x1="8" x2="624.4912" y1="71.5625" y2="71.5625"/><rect fill="#F24D5C" height="6" style="stroke:#C82930;stroke-width:1;" width="6" x="15" y="82.2109"/><text fill="#000000" font-family="sans-serif" font-size="14" lengthAdjust="spacing" text-decoration="underline" textLength="111.4463" x="27" y="88.5576">PmsCoreMenu()</text><rect fill="#F24D5C" height="6" style="stroke:#C82930;stroke-width:1;" width="6" x="15" y="98.5078"/><text fill="#000000" font-family="sans-serif" font-size="14" lengthAdjust="spacing" text-decoration="underline" textLength="338.3652" x="27" y="104.8545">GetIdFromInput(displayMessage:string) : string?</text><rect fill="#F24D5C" height="6" style="stroke:#C82930;stroke-width:1;" width="6" x="15" y="114.8047"/><text fill="#000000" font-family="sans-serif" font-size="14" lengthAdjust="spacing" text-decoration="underline" textLength="215.8584" x="27" y="121.1514">MenuHeader(title:string) : void</text><ellipse cx="18" cy="134.1016" fill="#84BE84" rx="3" ry="3" style="stroke:#038048;stroke-width:1;"/><text fill="#000000" font-family="sans-serif" font-size="14" lengthAdjust="spacing" text-decoration="underline" textLength="126.8066" x="27" y="137.4482">StartMenu() : void</text><rect fill="#F24D5C" height="6" style="stroke:#C82930;stroke-width:1;" width="6" x="15" y="147.3984"/><text fill="#000000" font-family="sans-serif" font-size="14" lengthAdjust="spacing" text-decoration="underline" textLength="130.8604" x="27" y="153.7451">LogInMenu() : void</text><rect fill="#F24D5C" height="6" style="stroke:#C82930;stroke-width:1;" width="6" x="15" y="163.6953"/><text fill="#000000" font-family="sans-serif" font-size="14" lengthAdjust="spacing" text-decoration="underline" textLength="213.8281" x="27" y="170.042">RemoveUserMenuItem() : void</text><rect fill="#F24D5C" height="6" style="stroke:#C82930;stroke-width:1;" width="6" x="15" y="179.9922"/><text fill="#000000" font-family="sans-serif" font-size="14" lengthAdjust="spacing" text-decoration="underline" textLength="411.4756" x="27" y="186.3389">AddRemoveUserPermission(removePermission:bool) : void</text><rect fill="#F24D5C" height="6" style="stroke:#C82930;stroke-width:1;" width="6" x="15" y="196.2891"/><text fill="#000000" font-family="sans-serif" font-size="14" lengthAdjust="spacing" text-decoration="underline" textLength="198.502" x="27" y="202.6357">GenerateUserReport() : void</text><rect fill="#F24D5C" height="6" style="stroke:#C82930;stroke-width:1;" width="6" x="15" y="212.5859"/><text fill="#000000" font-family="sans-serif" font-size="14" lengthAdjust="spacing" text-decoration="underline" textLength="216.7402" x="27" y="218.9326">UserManagementMenu() : void</text><rect fill="#F24D5C" height="6" style="stroke:#C82930;stroke-width:1;" width="6" x="15" y="228.8828"/><text fill="#000000" font-family="sans-serif" font-size="14" lengthAdjust="spacing" text-decoration="underline" textLength="472.6025" x="27" y="235.2295">AddRemoveEntity(entityType:EntityType, removeEntity:bool) : void</text><rect fill="#F24D5C" height="6" style="stroke:#C82930;stroke-width:1;" width="6" x="15" y="245.1797"/><text fill="#000000" font-family="sans-serif" font-size="14" lengthAdjust="spacing" text-decoration="underline" textLength="363.3369" x="27" y="251.5264">ChangeEntityProperty(entityType:EntityType) : void</text><rect fill="#F24D5C" height="6" style="stroke:#C82930;stroke-width:1;" width="6" x="15" y="261.4766"/><text fill="#000000" font-family="sans-serif" font-size="14" lengthAdjust="spacing" text-decoration="underline" textLength="551.6191" x="27" y="267.8232">AssociateDisassociateToEntity(entityType:EntityType, disassociate:bool) : void</text><rect fill="#F24D5C" height="6" style="stroke:#C82930;stroke-width:1;" width="6" x="15" y="277.7734"/><text fill="#000000" font-family="sans-serif" font-size="14" lengthAdjust="spacing" text-decoration="underline" textLength="592.4912" x="27" y="284.1201">AssociateDisassociateEntityToEntity(entityType:EntityType, disassociate:bool) : void</text><rect fill="#F24D5C" height="6" style="stroke:#C82930;stroke-width:1;" width="6" x="15" y="294.0703"/><text fill="#000000" font-family="sans-serif" font-size="14" lengthAdjust="spacing" text-decoration="underline" textLength="380.6045" x="27" y="300.417">EntityManagementMenu(entityType:EntityType) : void</text><rect fill="#F24D5C" height="6" style="stroke:#C82930;stroke-width:1;" width="6" x="15" y="310.3672"/><text fill="#000000" font-family="sans-serif" font-size="14" lengthAdjust="spacing" text-decoration="underline" textLength="126.0273" x="27" y="316.7139">MainMenu() : void</text><rect fill="#F24D5C" height="6" style="stroke:#C82930;stroke-width:1;" width="6" x="15" y="326.6641"/><text fill="#000000" font-family="sans-serif" font-size="14" lengthAdjust="spacing" text-decoration="underline" textLength="150.876" x="27" y="333.0107">RegisterMenu() : void</text><rect fill="#F24D5C" height="6" style="stroke:#C82930;stroke-width:1;" width="6" x="15" y="342.9609"/><text fill="#000000" font-family="sans-serif" font-size="14" lengthAdjust="spacing" text-decoration="underline" textLength="307.4668" x="27" y="349.3076">CreateUserFromInput(userId:string) : IUser?</text><rect fill="#F24D5C" height="6" style="stroke:#C82930;stroke-width:1;" width="6" x="15" y="359.2578"/><text fill="#000000" font-family="sans-serif" font-size="14" lengthAdjust="spacing" text-decoration="underline" textLength="100.5703" x="27" y="365.6045">OnExit() : void</text><rect fill="#F24D5C" height="6" style="stroke:#C82930;stroke-width:1;" width="6" x="15" y="375.5547"/><text fill="#000000" font-family="sans-serif" font-size="14" lengthAdjust="spacing" text-decoration="underline" textLength="535.8418" x="27" y="381.9014">ShutDownEventHandler(sender:object, args:ConsoleCancelEventArgs) : void</text></g><!--SRC=[hLJjRe8m5FtlKtJk3sRw0iIv6CQKP6H4tGDKUeDTu9Rq5ZTZVFSLS4BSO5co_g4VvvwUM-wvSSg9M9IHfpI4W0MRJibm8-FPZ1q7p8vZlJwnIHldZAh3INEy01E89wso0FF2E49Idl9324Gy0PUCbfYCcClgsSDrU4cw12v0EqQQj1snLr9KyBi6lZPScrf86z4YV5P9WBs85MHg3wy4keG51h9Ew5o81Xs1pYIHLEZeQhFPSBTAfLqa2q3Gt5GSAyYLDfttLQ8usfVB0Flpl4ZpqJxSmO7gipdauFgNwPZf5gPNfRVZc9o1aLOvw2xIJaL4AfOsqKT9_6k-KVtwH0lRg-z7zZFJVzrH1rtzW3-zGSZbRyMNI39rwNM2F0tdUccCLTXL85hs2ChpRtvwGVz3TXVOUbUOH_ME_jwcjUGeKciy0hJ-SzNs3M8pPbmdv7eAIQNWSOmXhT1pkzr5MpluudBRJH8mjfNSi-6j7ImArwni8JUiN0u7fqy0]--></g></svg>