<svg xmlns="http://www.w3.org/2000/svg" xmlns:xlink="http://www.w3.org/1999/xlink" contentStyleType="text/css" height="235px" preserveAspectRatio="none" style="width:352px;height:235px;background:#FFFFFF;" version="1.1" viewBox="0 0 352 235" width="352px" zoomAndPan="magnify"><defs/><g><!--class PmsLoggerProvider--><g id="elem_PmsLoggerProvider"><rect codeLine="1" fill="#F1F1F1" height="113.1875" id="PmsLoggerProvider" rx="2.5" ry="2.5" style="stroke:#181818;stroke-width:0.5;" width="338.1904" x="7" y="115"/><ellipse cx="103.8071" cy="131" fill="#ADD1B2" rx="11" ry="11" style="stroke:#181818;stroke-width:1;"/><path d="M106.7759,136.6406 Q106.1978,136.9375 105.5571,137.0781 Q104.9165,137.2344 104.2134,137.2344 Q101.7134,137.2344 100.3853,135.5938 Q99.0728,133.9375 99.0728,130.8125 Q99.0728,127.6875 100.3853,126.0313 Q101.7134,124.375 104.2134,124.375 Q104.9165,124.375 105.5571,124.5313 Q106.2134,124.6875 106.7759,124.9844 L106.7759,127.7031 Q106.1509,127.125 105.5571,126.8594 Q104.9634,126.5781 104.3384,126.5781 Q102.9946,126.5781 102.3071,127.6563 Q101.6196,128.7188 101.6196,130.8125 Q101.6196,132.9063 102.3071,133.9844 Q102.9946,135.0469 104.3384,135.0469 Q104.9634,135.0469 105.5571,134.7813 Q106.1509,134.5 106.7759,133.9219 L106.7759,136.6406 Z " fill="#000000"/><text fill="#000000" font-family="sans-serif" font-size="14" lengthAdjust="spacing" textLength="136.0762" x="124.3071" y="135.8467">PmsLoggerProvider</text><line style="stroke:#181818;stroke-width:0.5;" x1="8" x2="344.1904" y1="147" y2="147"/><rect fill="none" height="6" style="stroke:#C82930;stroke-width:1;" width="6" x="15" y="157.6484"/><text fill="#000000" font-family="sans-serif" font-size="14" lengthAdjust="spacing" textLength="286.4463" x="27" y="163.9951">&#171;readonly&#187; _logFileBuffer : StreamWriter</text><line style="stroke:#181818;stroke-width:0.5;" x1="8" x2="344.1904" y1="171.2969" y2="171.2969"/><ellipse cx="18" cy="184.9453" fill="#84BE84" rx="3" ry="3" style="stroke:#038048;stroke-width:1;"/><text fill="#000000" font-family="sans-serif" font-size="14" lengthAdjust="spacing" textLength="269.0762" x="27" y="188.292">PmsLoggerProvider(logFilePath:string)</text><ellipse cx="18" cy="201.2422" fill="#84BE84" rx="3" ry="3" style="stroke:#038048;stroke-width:1;"/><text fill="#000000" font-family="sans-serif" font-size="14" lengthAdjust="spacing" textLength="312.1904" x="27" y="204.5889">CreateLogger(handlerName:string) : ILogger</text><ellipse cx="18" cy="217.5391" fill="#84BE84" rx="3" ry="3" style="stroke:#038048;stroke-width:1;"/><text fill="#000000" font-family="sans-serif" font-size="14" lengthAdjust="spacing" textLength="109.4912" x="27" y="220.8857">Dispose() : void</text></g><!--class ILoggerProvider--><g id="elem_ILoggerProvider"><rect fill="#F1F1F1" height="48" id="ILoggerProvider" rx="2.5" ry="2.5" style="stroke:#181818;stroke-width:0.5;" width="142.8311" x="104.5" y="7"/><ellipse cx="119.5" cy="23" fill="#ADD1B2" rx="11" ry="11" style="stroke:#181818;stroke-width:1;"/><path d="M122.4688,28.6406 Q121.8906,28.9375 121.25,29.0781 Q120.6094,29.2344 119.9063,29.2344 Q117.4063,29.2344 116.0781,27.5938 Q114.7656,25.9375 114.7656,22.8125 Q114.7656,19.6875 116.0781,18.0313 Q117.4063,16.375 119.9063,16.375 Q120.6094,16.375 121.25,16.5313 Q121.9063,16.6875 122.4688,16.9844 L122.4688,19.7031 Q121.8438,19.125 121.25,18.8594 Q120.6563,18.5781 120.0313,18.5781 Q118.6875,18.5781 118,19.6563 Q117.3125,20.7188 117.3125,22.8125 Q117.3125,24.9063 118,25.9844 Q118.6875,27.0469 120.0313,27.0469 Q120.6563,27.0469 121.25,26.7813 Q121.8438,26.5 122.4688,25.9219 L122.4688,28.6406 Z " fill="#000000"/><text fill="#000000" font-family="sans-serif" font-size="14" lengthAdjust="spacing" textLength="110.8311" x="133.5" y="27.8467">ILoggerProvider</text><line style="stroke:#181818;stroke-width:0.5;" x1="105.5" x2="246.3311" y1="39" y2="39"/><line style="stroke:#181818;stroke-width:0.5;" x1="105.5" x2="246.3311" y1="47" y2="47"/></g><!--reverse link ILoggerProvider to PmsLoggerProvider--><g id="link_ILoggerProvider_PmsLoggerProvider"><path codeLine="7" d="M176,73.18 C176,89.51 176,94.08 176,114.94 " fill="none" id="ILoggerProvider-backto-PmsLoggerProvider" style="stroke:#181818;stroke-width:1;"/><polygon fill="none" points="176,55.18,170,73.18,182,73.18,176,55.18" style="stroke:#181818;stroke-width:1;"/></g><!--SRC=[POv12i8m44NtFSKi8v8BbD25Yb0G2RXmAS5Cqq3Ib4aiY7fteuqREyjvR_xygrCnWlJn48n1aXGcgv7WKK6UzP8m5ypUEfGgzNLCP0UpAkwMK2MSTTQhGJkae_Buqw26TgRbO6VZ62Ao3vc2rTyr1o5oa0w3kpSDNCg_pQthSgyQJYbJVoQRSiwhQl-AYoVdozPl]--></g></svg>