<svg xmlns="http://www.w3.org/2000/svg" xmlns:xlink="http://www.w3.org/1999/xlink" contentStyleType="text/css" height="85px" preserveAspectRatio="none" style="width:220px;height:85px;background:#FFFFFF;" version="1.1" viewBox="0 0 220 85" width="220px" zoomAndPan="magnify"><defs/><g><!--class Program--><g id="elem_Program"><rect codeLine="1" fill="#F1F1F1" height="64.2969" id="Program" rx="2.5" ry="2.5" style="stroke:#181818;stroke-width:0.5;" width="199.9336" x="7" y="7"/><ellipse cx="72.9053" cy="23" fill="#ADD1B2" rx="11" ry="11" style="stroke:#181818;stroke-width:1;"/><path d="M75.874,28.6406 Q75.2959,28.9375 74.6553,29.0781 Q74.0146,29.2344 73.3115,29.2344 Q70.8115,29.2344 69.4834,27.5938 Q68.1709,25.9375 68.1709,22.8125 Q68.1709,19.6875 69.4834,18.0313 Q70.8115,16.375 73.3115,16.375 Q74.0146,16.375 74.6553,16.5313 Q75.3115,16.6875 75.874,16.9844 L75.874,19.7031 Q75.249,19.125 74.6553,18.8594 Q74.0615,18.5781 73.4365,18.5781 Q72.0928,18.5781 71.4053,19.6563 Q70.7178,20.7188 70.7178,22.8125 Q70.7178,24.9063 71.4053,25.9844 Q72.0928,27.0469 73.4365,27.0469 Q74.0615,27.0469 74.6553,26.7813 Q75.249,26.5 75.874,25.9219 L75.874,28.6406 Z " fill="#000000"/><text fill="#000000" font-family="sans-serif" font-size="14" lengthAdjust="spacing" textLength="59.623" x="93.4053" y="27.8467">Program</text><line style="stroke:#181818;stroke-width:0.5;" x1="8" x2="205.9336" y1="39" y2="39"/><line style="stroke:#181818;stroke-width:0.5;" x1="8" x2="205.9336" y1="47" y2="47"/><ellipse cx="18" cy="60.6484" fill="#84BE84" rx="3" ry="3" style="stroke:#038048;stroke-width:1;"/><text fill="#000000" font-family="sans-serif" font-size="14" lengthAdjust="spacing" text-decoration="underline" textLength="173.9336" x="27" y="63.9951">Main(args:string[]) : void</text></g><!--SRC=[Iyv9B2vM22ZAJozAp5Mevb800cs5wkAIn9BCv5e5tyJCF8t4elHYg-AIeioyzEXOJGKhXRByp1IkMW00]--></g></svg>