<svg xmlns="http://www.w3.org/2000/svg" xmlns:xlink="http://www.w3.org/1999/xlink" contentStyleType="text/css" height="186px" preserveAspectRatio="none" style="width:249px;height:186px;background:#FFFFFF;" version="1.1" viewBox="0 0 249 186" width="249px" zoomAndPan="magnify"><defs/><g><!--class ProjectManager--><g id="elem_ProjectManager"><rect codeLine="1" fill="#F1F1F1" height="64.2969" id="ProjectManager" rx="2.5" ry="2.5" style="stroke:#181818;stroke-width:0.5;" width="235.2002" x="7" y="115"/><ellipse cx="65.4404" cy="131" fill="#ADD1B2" rx="11" ry="11" style="stroke:#181818;stroke-width:1;"/><path d="M68.4092,136.6406 Q67.8311,136.9375 67.1904,137.0781 Q66.5498,137.2344 65.8467,137.2344 Q63.3467,137.2344 62.0186,135.5938 Q60.7061,133.9375 60.7061,130.8125 Q60.7061,127.6875 62.0186,126.0313 Q63.3467,124.375 65.8467,124.375 Q66.5498,124.375 67.1904,124.5313 Q67.8467,124.6875 68.4092,124.9844 L68.4092,127.7031 Q67.7842,127.125 67.1904,126.8594 Q66.5967,126.5781 65.9717,126.5781 Q64.6279,126.5781 63.9404,127.6563 Q63.2529,128.7188 63.2529,130.8125 Q63.2529,132.9063 63.9404,133.9844 Q64.6279,135.0469 65.9717,135.0469 Q66.5967,135.0469 67.1904,134.7813 Q67.7842,134.5 68.4092,133.9219 L68.4092,136.6406 Z " fill="#000000"/><text fill="#000000" font-family="sans-serif" font-size="14" lengthAdjust="spacing" textLength="109.8193" x="85.9404" y="135.8467">ProjectManager</text><line style="stroke:#181818;stroke-width:0.5;" x1="8" x2="241.2002" y1="147" y2="147"/><line style="stroke:#181818;stroke-width:0.5;" x1="8" x2="241.2002" y1="155" y2="155"/><ellipse cx="18" cy="168.6484" fill="#84BE84" rx="3" ry="3" style="stroke:#038048;stroke-width:1;"/><text fill="#000000" font-family="sans-serif" font-size="14" lengthAdjust="spacing" textLength="209.2002" x="27" y="171.9951">ProjectManager(userId:string)</text></g><!--class User--><g id="elem_User"><rect fill="#F1F1F1" height="48" id="User" rx="2.5" ry="2.5" style="stroke:#181818;stroke-width:0.5;" width="63.9102" x="92.5" y="7"/><ellipse cx="107.5" cy="23" fill="#ADD1B2" rx="11" ry="11" style="stroke:#181818;stroke-width:1;"/><path d="M110.4688,28.6406 Q109.8906,28.9375 109.25,29.0781 Q108.6094,29.2344 107.9063,29.2344 Q105.4063,29.2344 104.0781,27.5938 Q102.7656,25.9375 102.7656,22.8125 Q102.7656,19.6875 104.0781,18.0313 Q105.4063,16.375 107.9063,16.375 Q108.6094,16.375 109.25,16.5313 Q109.9063,16.6875 110.4688,16.9844 L110.4688,19.7031 Q109.8438,19.125 109.25,18.8594 Q108.6563,18.5781 108.0313,18.5781 Q106.6875,18.5781 106,19.6563 Q105.3125,20.7188 105.3125,22.8125 Q105.3125,24.9063 106,25.9844 Q106.6875,27.0469 108.0313,27.0469 Q108.6563,27.0469 109.25,26.7813 Q109.8438,26.5 110.4688,25.9219 L110.4688,28.6406 Z " fill="#000000"/><text fill="#000000" font-family="sans-serif" font-size="14" lengthAdjust="spacing" textLength="31.9102" x="121.5" y="27.8467">User</text><line style="stroke:#181818;stroke-width:0.5;" x1="93.5" x2="155.4102" y1="39" y2="39"/><line style="stroke:#181818;stroke-width:0.5;" x1="93.5" x2="155.4102" y1="47" y2="47"/></g><!--reverse link User to ProjectManager--><g id="link_User_ProjectManager"><path codeLine="4" d="M124.5,73.07 C124.5,90.25 124.5,95.88 124.5,114.75 " fill="none" id="User-backto-ProjectManager" style="stroke:#181818;stroke-width:1;"/><polygon fill="none" points="124.5,55.07,118.5,73.07,130.5,73.07,124.5,55.07" style="stroke:#181818;stroke-width:1;"/></g><!--SRC=[Iyv9B2vM22ZApqfDBl5Dp4jCJorIgEPI009jD66DqkBK8iyKg-AIeioyT4skMgvGe822JOskBffA0000]--></g></svg>