<svg xmlns="http://www.w3.org/2000/svg" xmlns:xlink="http://www.w3.org/1999/xlink" contentStyleType="text/css" height="838px" preserveAspectRatio="none" style="width:669px;height:838px;background:#FFFFFF;" version="1.1" viewBox="0 0 669 838" width="669px" zoomAndPan="magnify"><defs/><g><!--class StateManager--><g id="elem_StateManager"><rect codeLine="1" fill="#F1F1F1" height="683.5781" id="StateManager" rx="2.5" ry="2.5" style="stroke:#181818;stroke-width:0.5;" width="655.3506" x="7" y="7"/><ellipse cx="281.2134" cy="23" fill="#ADD1B2" rx="11" ry="11" style="stroke:#181818;stroke-width:1;"/><path d="M284.1821,28.6406 Q283.604,28.9375 282.9634,29.0781 Q282.3228,29.2344 281.6196,29.2344 Q279.1196,29.2344 277.7915,27.5938 Q276.479,25.9375 276.479,22.8125 Q276.479,19.6875 277.7915,18.0313 Q279.1196,16.375 281.6196,16.375 Q282.3228,16.375 282.9634,16.5313 Q283.6196,16.6875 284.1821,16.9844 L284.1821,19.7031 Q283.5571,19.125 282.9634,18.8594 Q282.3696,18.5781 281.7446,18.5781 Q280.4009,18.5781 279.7134,19.6563 Q279.0259,20.7188 279.0259,22.8125 Q279.0259,24.9063 279.7134,25.9844 Q280.4009,27.0469 281.7446,27.0469 Q282.3696,27.0469 282.9634,26.7813 Q283.5571,26.5 284.1821,25.9219 L284.1821,28.6406 Z " fill="#000000"/><text fill="#000000" font-family="sans-serif" font-size="14" lengthAdjust="spacing" textLength="98.4238" x="301.7134" y="27.8467">StateManager</text><line style="stroke:#181818;stroke-width:0.5;" x1="8" x2="661.3506" y1="39" y2="39"/><rect fill="none" height="6" style="stroke:#C82930;stroke-width:1;" width="6" x="15" y="49.6484"/><text fill="#000000" font-family="sans-serif" font-size="14" lengthAdjust="spacing" text-decoration="underline" textLength="227.4658" x="27" y="55.9951">_singleInstance : StateManager?</text><rect fill="none" height="6" style="stroke:#C82930;stroke-width:1;" width="6" x="15" y="65.9453"/><text fill="#000000" font-family="sans-serif" font-size="14" lengthAdjust="spacing" text-decoration="underline" textLength="117.8516" x="27" y="72.292">_logger : ILogger</text><rect fill="none" height="6" style="stroke:#C82930;stroke-width:1;" width="6" x="15" y="82.2422"/><text fill="#000000" font-family="sans-serif" font-size="14" lengthAdjust="spacing" textLength="242.1426" x="27" y="88.5889">_users : Dictionary&lt;string, User&gt;?</text><rect fill="none" height="6" style="stroke:#C82930;stroke-width:1;" width="6" x="15" y="98.5391"/><text fill="#000000" font-family="sans-serif" font-size="14" lengthAdjust="spacing" textLength="265.4258" x="27" y="104.8857">_entities : Dictionary&lt;string, Entity&gt;?</text><rect fill="none" height="6" style="stroke:#C82930;stroke-width:1;" width="6" x="15" y="114.8359"/><text fill="#000000" font-family="sans-serif" font-size="14" lengthAdjust="spacing" textLength="462.5537" x="27" y="121.1826">_userToEntityAssociation : Dictionary&lt;string, HashSet&lt;string&gt;&gt;?</text><rect fill="none" height="6" style="stroke:#C82930;stroke-width:1;" width="6" x="15" y="131.1328"/><text fill="#000000" font-family="sans-serif" font-size="14" lengthAdjust="spacing" textLength="472.6572" x="27" y="137.4795">_entityToEntityAssociation : Dictionary&lt;string, HashSet&lt;string&gt;&gt;?</text><rect fill="none" height="6" style="stroke:#C82930;stroke-width:1;" width="6" x="15" y="147.4297"/><text fill="#000000" font-family="sans-serif" font-size="14" lengthAdjust="spacing" textLength="147.0547" x="27" y="153.7764">_currentUser : IUser?</text><rect fill="none" height="6" style="stroke:#C82930;stroke-width:1;" width="6" x="15" y="163.7266"/><text fill="#000000" font-family="sans-serif" font-size="14" lengthAdjust="spacing" textLength="103.8721" x="27" y="170.0732">_report : string</text><rect fill="none" height="6" style="stroke:#C82930;stroke-width:1;" width="6" x="15" y="180.0234"/><text fill="#000000" font-family="sans-serif" font-size="14" lengthAdjust="spacing" text-decoration="underline" textLength="223.7061" x="27" y="186.3701">&#171;readonly&#187; _createLock : object</text><rect fill="none" height="6" style="stroke:#C82930;stroke-width:1;" width="6" x="15" y="196.3203"/><text fill="#000000" font-family="sans-serif" font-size="14" lengthAdjust="spacing" textLength="253.3125" x="27" y="202.667">PersistencePath : string &#171;get&#187; &#171;set&#187;</text><ellipse cx="18" cy="215.6172" fill="none" rx="3" ry="3" style="stroke:#038048;stroke-width:1;"/><text fill="#000000" font-family="sans-serif" font-size="14" lengthAdjust="spacing" textLength="197.709" x="27" y="218.9639">FileRead : bool &#171;get&#187; = true</text><line style="stroke:#181818;stroke-width:0.5;" x1="8" x2="661.3506" y1="226.2656" y2="226.2656"/><rect fill="#F24D5C" height="6" style="stroke:#C82930;stroke-width:1;" width="6" x="15" y="236.9141"/><text fill="#000000" font-family="sans-serif" font-size="14" lengthAdjust="spacing" textLength="218.7295" x="27" y="243.2607">StateManager(logger:ILogger?)</text><ellipse cx="18" cy="256.2109" fill="#84BE84" rx="3" ry="3" style="stroke:#038048;stroke-width:1;"/><text fill="#000000" font-family="sans-serif" font-size="14" lengthAdjust="spacing" text-decoration="underline" textLength="316.8457" x="27" y="259.5576">GetInstance(logger:ILogger?) : StateManager</text><ellipse cx="18" cy="272.5078" fill="#84BE84" rx="3" ry="3" style="stroke:#038048;stroke-width:1;"/><text fill="#000000" font-family="sans-serif" font-size="14" lengthAdjust="spacing" text-decoration="underline" textLength="153.4531" x="27" y="275.8545">ResetInstance() : void</text><rect fill="#F24D5C" height="6" style="stroke:#C82930;stroke-width:1;" width="6" x="15" y="285.8047"/><text fill="#000000" font-family="sans-serif" font-size="14" lengthAdjust="spacing" textLength="341.2295" x="27" y="292.1514">AppendMessageToReport(message:string) : void</text><ellipse cx="18" cy="305.1016" fill="#84BE84" rx="3" ry="3" style="stroke:#038048;stroke-width:1;"/><text fill="#000000" font-family="sans-serif" font-size="14" lengthAdjust="spacing" textLength="136.7188" x="27" y="308.4482">GetReport() : string</text><rect fill="#F24D5C" height="6" style="stroke:#C82930;stroke-width:1;" width="6" x="15" y="318.3984"/><text fill="#000000" font-family="sans-serif" font-size="14" lengthAdjust="spacing" textLength="488.4551" x="27" y="324.7451">FindObjectExists(entityId:string, objectType:ObjectType) : EntityState</text><ellipse cx="18" cy="337.6953" fill="#84BE84" rx="3" ry="3" style="stroke:#038048;stroke-width:1;"/><text fill="#000000" font-family="sans-serif" font-size="14" lengthAdjust="spacing" textLength="287.54" x="27" y="341.042">UserLogin(username:string) : EntityState</text><ellipse cx="18" cy="353.9922" fill="#84BE84" rx="3" ry="3" style="stroke:#038048;stroke-width:1;"/><text fill="#000000" font-family="sans-serif" font-size="14" lengthAdjust="spacing" textLength="182.5605" x="27" y="357.3389">UserLogout() : EntityState</text><ellipse cx="18" cy="370.2891" fill="#84BE84" rx="3" ry="3" style="stroke:#038048;stroke-width:1;"/><text fill="#000000" font-family="sans-serif" font-size="14" lengthAdjust="spacing" textLength="387.9873" x="27" y="373.6357">UserRegister(username:string, user:IUser) : EntityState</text><ellipse cx="18" cy="386.5859" fill="#84BE84" rx="3" ry="3" style="stroke:#038048;stroke-width:1;"/><text fill="#000000" font-family="sans-serif" font-size="14" lengthAdjust="spacing" textLength="295.5244" x="27" y="389.9326">DeleteUser(username:string) : EntityState</text><ellipse cx="18" cy="402.8828" fill="#84BE84" rx="3" ry="3" style="stroke:#038048;stroke-width:1;"/><text fill="#000000" font-family="sans-serif" font-size="14" lengthAdjust="spacing" textLength="591.6094" x="27" y="406.2295">CreateEntity(entityType:EntityType, entityId:string, description:string?) : EntityState</text><ellipse cx="18" cy="419.1797" fill="#84BE84" rx="3" ry="3" style="stroke:#038048;stroke-width:1;"/><text fill="#000000" font-family="sans-serif" font-size="14" lengthAdjust="spacing" textLength="299.3457" x="27" y="422.5264">RemoveEntity(entityId:string) : EntityState</text><ellipse cx="18" cy="435.4766" fill="#84BE84" rx="3" ry="3" style="stroke:#038048;stroke-width:1;"/><text fill="#000000" font-family="sans-serif" font-size="14" lengthAdjust="spacing" textLength="530.6875" x="27" y="438.8232">GetEntityProperty(id:string, property:EntityProperty) : (EntityState, object?)</text><ellipse cx="18" cy="451.7734" fill="#84BE84" rx="3" ry="3" style="stroke:#038048;stroke-width:1;"/><text fill="#000000" font-family="sans-serif" font-size="14" lengthAdjust="spacing" textLength="629.3506" x="27" y="455.1201">UpdateEntityProperty(entityId:string, property:EntityProperty, value:object?) : EntityState</text><ellipse cx="18" cy="468.0703" fill="#84BE84" rx="3" ry="3" style="stroke:#038048;stroke-width:1;"/><text fill="#000000" font-family="sans-serif" font-size="14" lengthAdjust="spacing" textLength="593.8926" x="27" y="471.417">UpdateUserProperty(userId:string, property:UserProperty, value:object) : EntityState</text><ellipse cx="18" cy="484.3672" fill="#84BE84" rx="3" ry="3" style="stroke:#038048;stroke-width:1;"/><text fill="#000000" font-family="sans-serif" font-size="14" lengthAdjust="spacing" textLength="260.0391" x="27" y="487.7139">GetUserReport(userId:string) : object</text><ellipse cx="18" cy="500.6641" fill="#84BE84" rx="3" ry="3" style="stroke:#038048;stroke-width:1;"/><text fill="#000000" font-family="sans-serif" font-size="14" lengthAdjust="spacing" textLength="300.0088" x="27" y="504.0107">GetUserAssociations(userId:string) : object</text><ellipse cx="18" cy="516.9609" fill="#84BE84" rx="3" ry="3" style="stroke:#038048;stroke-width:1;"/><text fill="#000000" font-family="sans-serif" font-size="14" lengthAdjust="spacing" textLength="501.6826" x="27" y="520.3076">AssociateUserToEntity(entityId:string, userId:string) : AssociationStatus</text><ellipse cx="18" cy="533.2578" fill="#84BE84" rx="3" ry="3" style="stroke:#038048;stroke-width:1;"/><text fill="#000000" font-family="sans-serif" font-size="14" lengthAdjust="spacing" textLength="541.543" x="27" y="536.6045">DisassociateUserFromEntity(entityId:string, userId:string) : AssociationStatus</text><rect fill="#F24D5C" height="6" style="stroke:#C82930;stroke-width:1;" width="6" x="15" y="546.5547"/><text fill="#000000" font-family="sans-serif" font-size="14" lengthAdjust="spacing" textLength="471.3584" x="27" y="552.9014">AssociateEntities(projectId:string, taskId:string) : AssociationStatus</text><ellipse cx="18" cy="565.8516" fill="#84BE84" rx="3" ry="3" style="stroke:#038048;stroke-width:1;"/><text fill="#000000" font-family="sans-serif" font-size="14" lengthAdjust="spacing" textLength="513.8984" x="27" y="569.1982">AssociateEntityToEntity(entityA:string, entityB:string) : AssociationStatus</text><rect fill="#F24D5C" height="6" style="stroke:#C82930;stroke-width:1;" width="6" x="15" y="579.1484"/><text fill="#000000" font-family="sans-serif" font-size="14" lengthAdjust="spacing" textLength="492.3242" x="27" y="585.4951">DisassociateEntities(projectId:string, taskId:string) : AssociationStatus</text><ellipse cx="18" cy="598.4453" fill="#84BE84" rx="3" ry="3" style="stroke:#038048;stroke-width:1;"/><text fill="#000000" font-family="sans-serif" font-size="14" lengthAdjust="spacing" textLength="553.7588" x="27" y="601.792">DisassociateEntityFromEntity(entityA:string, entityB:string) : AssociationStatus</text><ellipse cx="18" cy="614.7422" fill="#84BE84" rx="3" ry="3" style="stroke:#038048;stroke-width:1;"/><text fill="#000000" font-family="sans-serif" font-size="14" lengthAdjust="spacing" textLength="170.5771" x="27" y="618.0889">GetCurrentUser() : IUser</text><rect fill="#F24D5C" height="6" style="stroke:#C82930;stroke-width:1;" width="6" x="15" y="628.0391"/><text fill="#000000" font-family="sans-serif" font-size="14" lengthAdjust="spacing" textLength="189.1162" x="27" y="634.3857">SetPersistencePath() : void</text><rect fill="#F24D5C" height="6" style="stroke:#C82930;stroke-width:1;" width="6" x="15" y="644.3359"/><text fill="#000000" font-family="sans-serif" font-size="14" lengthAdjust="spacing" textLength="414.5381" x="27" y="650.6826">DeserializeObjects(path:string, objectToDeserialize:T?) : T?</text><rect fill="#F24D5C" height="6" style="stroke:#C82930;stroke-width:1;" width="6" x="15" y="660.6328"/><text fill="#000000" font-family="sans-serif" font-size="14" lengthAdjust="spacing" textLength="204.5859" x="27" y="666.9795">LoadFromPersistence() : void</text><ellipse cx="18" cy="679.9297" fill="#84BE84" rx="3" ry="3" style="stroke:#038048;stroke-width:1;"/><text fill="#000000" font-family="sans-serif" font-size="14" lengthAdjust="spacing" textLength="307.7539" x="27" y="683.2764">&#171;async&#187; StoreToPersistence() : Task&lt;bool&gt;</text></g><!--class ObjectType--><g id="elem_ObjectType"><rect codeLine="42" fill="#F1F1F1" height="80.5938" id="ObjectType" rx="2.5" ry="2.5" style="stroke:#181818;stroke-width:0.5;" width="111.9326" x="278.5" y="751"/><ellipse cx="293.5" cy="767" fill="#EB937F" rx="11" ry="11" style="stroke:#181818;stroke-width:1;"/><path d="M297.6094,773 L289.8906,773 L289.8906,760.6094 L297.6094,760.6094 L297.6094,762.7656 L292.3438,762.7656 L292.3438,765.4375 L297.1094,765.4375 L297.1094,767.5938 L292.3438,767.5938 L292.3438,770.8438 L297.6094,770.8438 L297.6094,773 Z " fill="#000000"/><text fill="#000000" font-family="sans-serif" font-size="14" lengthAdjust="spacing" textLength="79.9326" x="307.5" y="771.8467">ObjectType</text><line style="stroke:#181818;stroke-width:0.5;" x1="279.5" x2="389.4326" y1="783" y2="783"/><text fill="#000000" font-family="sans-serif" font-size="14" lengthAdjust="spacing" textLength="45.3223" x="284.5" y="799.9951">Entity,</text><text fill="#000000" font-family="sans-serif" font-size="14" lengthAdjust="spacing" textLength="36.3604" x="284.5" y="816.292">User,</text><line style="stroke:#181818;stroke-width:0.5;" x1="279.5" x2="389.4326" y1="823.5938" y2="823.5938"/></g><!--reverse link StateManager to ObjectType--><g id="link_StateManager_ObjectType"><path codeLine="46" d="M334.5,707.09 C334.5,730.09 334.5,734.55 334.5,750.83 " fill="none" id="StateManager-backto-ObjectType" style="stroke:#181818;stroke-width:1;"/><ellipse cx="334.5" cy="699.09" fill="#FFFFFF" rx="8" ry="8" style="stroke:#181818;stroke-width:1;"/><line style="stroke:#181818;stroke-width:1;" x1="334.5" x2="334.5" y1="707.09" y2="691.09"/><line style="stroke:#181818;stroke-width:1;" x1="326.5" x2="342.5" y1="699.09" y2="699.09"/></g><!--SRC=[hLRRJjmm47tdA_oOYkmFHEckA0ljIY3GDZolJ39QNB9sP3keAUBVExx4wrnMKD6yn1wVEPvRPbBML2doKrCDjvJJFKZoUaRmMGo4IIts-CesD_Qz-c8nv-HL8OYLR-Gxw0t73IzXWYNPW6kikWKLAHlqYs2LD-AYQO1Njw0KgXPY2usGEZcuVQQqP7m_K3atfdYOEN0GptRDU7Nt-0jAVVMRAQqIu9hfRbDvffG8Urfq3MHtOMbuhYpI-k7lUL0WqKN6anPNd1vYUqx2HUlicWTiOOzsORn7b2anWcnZCFFQQwX1Wpd_c3cN4d3Zv3uCrkkhi4p993eLg5AoHZF1lMmrpxw5WtWPiWUQUGtCcXFUIz60H3LslBVnicm8CKn9HDMdBvJdGrC59mFlnAiJx2bveNKBMSyvdpHxWmbxu3VXdsEFGKFkan5n9M5hUS1g59pg47kXb2WPDVbHxsZqK6jx8UPJvSfkG19TOOnjLLz_JD6OybgAmoT95qSZBHC3bM0qZHCHcQRg-KCM3icwaSyNWT3jltt0lDZd_s7XXA-RHF7VpRJ5STbAYGgsFHYeRIHzdmTz3rAPleCD-9xgft4JNcE7bepMx0-ufeXU8cpSD4M4omhxmHGhJt4ZQ6MSYMvAHdqxpwdgUBbSuhGG4flz65jW7FD78Ugb9mqZPAVGZXhw8J8QEAi9t4qe4mStepnWPmfJeNZDIXD5Ahkyzz44RDapxS1dUnxhCdP4jz4d5YLfNla7LK-O4hzVZkxiFizJ7ckXhuHm9csp6O_D4BWynwbH2LvtcALTQKV8ZIYVXyrbGKRr5FYGO0yQTVDScRVF_3MhOOl4Y3Ff3QYlHCiMpjxEWBS7Sfp7_XV51IArQ-D5YiZ1dypvOX5f_GK0]--></g></svg>