<svg xmlns="http://www.w3.org/2000/svg" xmlns:xlink="http://www.w3.org/1999/xlink" contentStyleType="text/css" height="186px" preserveAspectRatio="none" style="width:183px;height:186px;background:#FFFFFF;" version="1.1" viewBox="0 0 183 186" width="183px" zoomAndPan="magnify"><defs/><g><!--class Tester--><g id="elem_Tester"><rect codeLine="1" fill="#F1F1F1" height="64.2969" id="Tester" rx="2.5" ry="2.5" style="stroke:#181818;stroke-width:0.5;" width="169.6982" x="7" y="115"/><ellipse cx="65.4404" cy="131" fill="#ADD1B2" rx="11" ry="11" style="stroke:#181818;stroke-width:1;"/><path d="M68.4092,136.6406 Q67.8311,136.9375 67.1904,137.0781 Q66.5498,137.2344 65.8467,137.2344 Q63.3467,137.2344 62.0186,135.5938 Q60.7061,133.9375 60.7061,130.8125 Q60.7061,127.6875 62.0186,126.0313 Q63.3467,124.375 65.8467,124.375 Q66.5498,124.375 67.1904,124.5313 Q67.8467,124.6875 68.4092,124.9844 L68.4092,127.7031 Q67.7842,127.125 67.1904,126.8594 Q66.5967,126.5781 65.9717,126.5781 Q64.6279,126.5781 63.9404,127.6563 Q63.2529,128.7188 63.2529,130.8125 Q63.2529,132.9063 63.9404,133.9844 Q64.6279,135.0469 65.9717,135.0469 Q66.5967,135.0469 67.1904,134.7813 Q67.7842,134.5 68.4092,133.9219 L68.4092,136.6406 Z " fill="#000000"/><text fill="#000000" font-family="sans-serif" font-size="14" lengthAdjust="spacing" textLength="44.3174" x="85.9404" y="135.8467">Tester</text><line style="stroke:#181818;stroke-width:0.5;" x1="8" x2="175.6982" y1="147" y2="147"/><line style="stroke:#181818;stroke-width:0.5;" x1="8" x2="175.6982" y1="155" y2="155"/><ellipse cx="18" cy="168.6484" fill="#84BE84" rx="3" ry="3" style="stroke:#038048;stroke-width:1;"/><text fill="#000000" font-family="sans-serif" font-size="14" lengthAdjust="spacing" textLength="143.6982" x="27" y="171.9951">Tester(userId:string)</text></g><!--class User--><g id="elem_User"><rect fill="#F1F1F1" height="48" id="User" rx="2.5" ry="2.5" style="stroke:#181818;stroke-width:0.5;" width="63.9102" x="60" y="7"/><ellipse cx="75" cy="23" fill="#ADD1B2" rx="11" ry="11" style="stroke:#181818;stroke-width:1;"/><path d="M77.9688,28.6406 Q77.3906,28.9375 76.75,29.0781 Q76.1094,29.2344 75.4063,29.2344 Q72.9063,29.2344 71.5781,27.5938 Q70.2656,25.9375 70.2656,22.8125 Q70.2656,19.6875 71.5781,18.0313 Q72.9063,16.375 75.4063,16.375 Q76.1094,16.375 76.75,16.5313 Q77.4063,16.6875 77.9688,16.9844 L77.9688,19.7031 Q77.3438,19.125 76.75,18.8594 Q76.1563,18.5781 75.5313,18.5781 Q74.1875,18.5781 73.5,19.6563 Q72.8125,20.7188 72.8125,22.8125 Q72.8125,24.9063 73.5,25.9844 Q74.1875,27.0469 75.5313,27.0469 Q76.1563,27.0469 76.75,26.7813 Q77.3438,26.5 77.9688,25.9219 L77.9688,28.6406 Z " fill="#000000"/><text fill="#000000" font-family="sans-serif" font-size="14" lengthAdjust="spacing" textLength="31.9102" x="89" y="27.8467">User</text><line style="stroke:#181818;stroke-width:0.5;" x1="61" x2="122.9102" y1="39" y2="39"/><line style="stroke:#181818;stroke-width:0.5;" x1="61" x2="122.9102" y1="47" y2="47"/></g><!--reverse link User to Tester--><g id="link_User_Tester"><path codeLine="4" d="M92,73.07 C92,90.25 92,95.88 92,114.75 " fill="none" id="User-backto-Tester" style="stroke:#181818;stroke-width:1;"/><polygon fill="none" points="92,55.07,86,73.07,98,73.07,92,55.07" style="stroke:#181818;stroke-width:1;"/></g><!--SRC=[Iyv9B2vM24ajBaajKgZcKW02RIXNexGujSWpnQguf2WpBrsJgvOh52YWO5EZgmjL0G00]--></g></svg>