<svg xmlns="http://www.w3.org/2000/svg" xmlns:xlink="http://www.w3.org/1999/xlink" contentStyleType="text/css" height="528px" preserveAspectRatio="none" style="width:923px;height:528px;background:#FFFFFF;" version="1.1" viewBox="0 0 923 528" width="923px" zoomAndPan="magnify"><defs/><g><!--class User--><g id="elem_User"><rect codeLine="1" fill="#F1F1F1" height="406.5313" id="User" rx="2.5" ry="2.5" style="stroke:#181818;stroke-width:0.5;" width="907.4189" x="9" y="115"/><ellipse cx="442.5044" cy="131" fill="#A9DCDF" rx="11" ry="11" style="stroke:#181818;stroke-width:1;"/><path d="M442.6138,126.3438 L441.4575,131.4219 L443.7856,131.4219 L442.6138,126.3438 Z M441.1294,124.1094 L444.1138,124.1094 L447.4731,136.5 L445.02,136.5 L444.2544,133.4375 L440.9731,133.4375 L440.2231,136.5 L437.7856,136.5 L441.1294,124.1094 Z " fill="#000000"/><text fill="#000000" font-family="sans-serif" font-size="14" font-style="italic" lengthAdjust="spacing" textLength="31.9102" x="463.0044" y="135.8467">User</text><line style="stroke:#181818;stroke-width:0.5;" x1="10" x2="915.4189" y1="147" y2="147"/><ellipse cx="20" cy="160.6484" fill="none" rx="3" ry="3" style="stroke:#038048;stroke-width:1;"/><text fill="#000000" font-family="sans-serif" font-size="14" lengthAdjust="spacing" textLength="233.6592" x="29" y="163.9951">UserType : UserType &#171;get&#187; &#171;set&#187;</text><ellipse cx="20" cy="176.9453" fill="none" rx="3" ry="3" style="stroke:#038048;stroke-width:1;"/><text fill="#000000" font-family="sans-serif" font-size="14" lengthAdjust="spacing" textLength="186.2793" x="29" y="180.292">UserId : string &#171;get&#187; &#171;set&#187;</text><ellipse cx="20" cy="193.2422" fill="none" rx="3" ry="3" style="stroke:#038048;stroke-width:1;"/><text fill="#000000" font-family="sans-serif" font-size="14" lengthAdjust="spacing" textLength="374.6025" x="29" y="196.5889">UserPermissions : HashSet&lt;Permission&gt; &#171;get&#187; &#171;set&#187;</text><ellipse cx="20" cy="209.5391" fill="none" rx="3" ry="3" style="stroke:#038048;stroke-width:1;"/><text fill="#000000" font-family="sans-serif" font-size="14" lengthAdjust="spacing" textLength="177.3242" x="29" y="212.8857">UserReport : string &#171;get&#187;</text><line style="stroke:#181818;stroke-width:0.5;" x1="10" x2="915.4189" y1="220.1875" y2="220.1875"/><polygon fill="#FFFF44" points="20,228.8359,24,232.8359,20,236.8359,16,232.8359" style="stroke:#B38D22;stroke-width:1;"/><text fill="#000000" font-family="sans-serif" font-size="14" lengthAdjust="spacing" textLength="561.709" x="29" y="237.1826">User(userType:UserType, userId:string, userPermissions:HashSet&lt;Permission&gt;)</text><rect fill="#F24D5C" height="6" style="stroke:#C82930;stroke-width:1;" width="6" x="17" y="247.1328"/><text fill="#000000" font-family="sans-serif" font-size="14" lengthAdjust="spacing" textLength="279.8701" x="29" y="253.4795">AppendToReport(message:string) : void</text><ellipse cx="20" cy="266.4297" fill="#84BE84" rx="3" ry="3" style="stroke:#038048;stroke-width:1;"/><text fill="#000000" font-family="sans-serif" font-size="14" lengthAdjust="spacing" textLength="134.6064" x="29" y="269.7764">GetUserId() : string</text><ellipse cx="20" cy="282.7266" fill="#84BE84" rx="3" ry="3" style="stroke:#038048;stroke-width:1;"/><text fill="#000000" font-family="sans-serif" font-size="14" lengthAdjust="spacing" textLength="657.9795" x="29" y="286.0732">CreateEntity(type:EntityType, entityId:string, entityDescription:string?) : UserOperationResult</text><ellipse cx="20" cy="299.0234" fill="#84BE84" rx="3" ry="3" style="stroke:#038048;stroke-width:1;"/><text fill="#000000" font-family="sans-serif" font-size="14" lengthAdjust="spacing" textLength="881.4189" x="29" y="302.3701">ChangeEntityProperty(type:EntityType, entityId:string, property:EntityProperty, propertyValue:object?) : UserOperationResult</text><ellipse cx="20" cy="315.3203" fill="#84BE84" rx="3" ry="3" style="stroke:#038048;stroke-width:1;"/><text fill="#000000" font-family="sans-serif" font-size="14" lengthAdjust="spacing" textLength="475.542" x="29" y="318.667">DeleteEntity(type:EntityType, entityId:string) : UserOperationResult</text><ellipse cx="20" cy="331.6172" fill="#84BE84" rx="3" ry="3" style="stroke:#038048;stroke-width:1;"/><text fill="#000000" font-family="sans-serif" font-size="14" lengthAdjust="spacing" textLength="561.0732" x="29" y="334.9639">AssociateEntityToEntity(entityIdA:string, entityIdB:string) : UserOperationResult</text><ellipse cx="20" cy="347.9141" fill="#84BE84" rx="3" ry="3" style="stroke:#038048;stroke-width:1;"/><text fill="#000000" font-family="sans-serif" font-size="14" lengthAdjust="spacing" textLength="585.0605" x="29" y="351.2607">DissociateEntityFromEntity(entityIdA:string, entityIdB:string) : UserOperationResult</text><ellipse cx="20" cy="364.2109" fill="#84BE84" rx="3" ry="3" style="stroke:#038048;stroke-width:1;"/><text fill="#000000" font-family="sans-serif" font-size="14" lengthAdjust="spacing" textLength="319.5391" x="29" y="367.5576">GenerateEntityReport(entityId:string) : object</text><ellipse cx="20" cy="380.5078" fill="#84BE84" rx="3" ry="3" style="stroke:#038048;stroke-width:1;"/><text fill="#000000" font-family="sans-serif" font-size="14" lengthAdjust="spacing" textLength="336.376" x="29" y="383.8545">DeleteUser(userId:string) : UserOperationResult</text><ellipse cx="20" cy="396.8047" fill="#84BE84" rx="3" ry="3" style="stroke:#038048;stroke-width:1;"/><text fill="#000000" font-family="sans-serif" font-size="14" lengthAdjust="spacing" textLength="300.0088" x="29" y="400.1514">GetUserAssociations(userId:string) : object</text><ellipse cx="20" cy="413.1016" fill="#84BE84" rx="3" ry="3" style="stroke:#038048;stroke-width:1;"/><text fill="#000000" font-family="sans-serif" font-size="14" lengthAdjust="spacing" textLength="537.8037" x="29" y="416.4482">AssociateUserWithEntity(userId:string, entityId:string) : UserOperationResult</text><ellipse cx="20" cy="429.3984" fill="#84BE84" rx="3" ry="3" style="stroke:#038048;stroke-width:1;"/><text fill="#000000" font-family="sans-serif" font-size="14" lengthAdjust="spacing" textLength="558.7695" x="29" y="432.7451">DisassociateUserWithEntity(userId:string, entityId:string) : UserOperationResult</text><ellipse cx="20" cy="445.6953" fill="#84BE84" rx="3" ry="3" style="stroke:#038048;stroke-width:1;"/><text fill="#000000" font-family="sans-serif" font-size="14" lengthAdjust="spacing" textLength="478.9121" x="29" y="449.042">CheckUserPermission(permission:Permission) : UserOperationResult</text><ellipse cx="20" cy="461.9922" fill="#84BE84" rx="3" ry="3" style="stroke:#038048;stroke-width:1;"/><text fill="#000000" font-family="sans-serif" font-size="14" lengthAdjust="spacing" textLength="560.5537" x="29" y="465.3389">AddUserPermission(userId:string, permission:Permission) : UserOperationResult</text><ellipse cx="20" cy="478.2891" fill="#84BE84" rx="3" ry="3" style="stroke:#038048;stroke-width:1;"/><text fill="#000000" font-family="sans-serif" font-size="14" lengthAdjust="spacing" textLength="590.6455" x="29" y="481.6357">RemoveUserPermission(userId:string, permission:Permission) : UserOperationResult</text><ellipse cx="20" cy="494.5859" fill="#84BE84" rx="3" ry="3" style="stroke:#038048;stroke-width:1;"/><text fill="#000000" font-family="sans-serif" font-size="14" lengthAdjust="spacing" textLength="484.6611" x="29" y="497.9326">ChangeUserId(userId:string, newUserId:string) : UserOperationResult</text><ellipse cx="20" cy="510.8828" fill="#84BE84" rx="3" ry="3" style="stroke:#038048;stroke-width:1;"/><text fill="#000000" font-family="sans-serif" font-size="14" lengthAdjust="spacing" textLength="300.4736" x="29" y="514.2295">GenerateUserReport(userId:string) : object</text></g><!--class IUser--><g id="elem_IUser"><rect fill="#F1F1F1" height="48" id="IUser" rx="2.5" ry="2.5" style="stroke:#181818;stroke-width:0.5;" width="68.0391" x="428.5" y="7"/><ellipse cx="443.5" cy="23" fill="#ADD1B2" rx="11" ry="11" style="stroke:#181818;stroke-width:1;"/><path d="M446.4688,28.6406 Q445.8906,28.9375 445.25,29.0781 Q444.6094,29.2344 443.9063,29.2344 Q441.4063,29.2344 440.0781,27.5938 Q438.7656,25.9375 438.7656,22.8125 Q438.7656,19.6875 440.0781,18.0313 Q441.4063,16.375 443.9063,16.375 Q444.6094,16.375 445.25,16.5313 Q445.9063,16.6875 446.4688,16.9844 L446.4688,19.7031 Q445.8438,19.125 445.25,18.8594 Q444.6563,18.5781 444.0313,18.5781 Q442.6875,18.5781 442,19.6563 Q441.3125,20.7188 441.3125,22.8125 Q441.3125,24.9063 442,25.9844 Q442.6875,27.0469 444.0313,27.0469 Q444.6563,27.0469 445.25,26.7813 Q445.8438,26.5 446.4688,25.9219 L446.4688,28.6406 Z " fill="#000000"/><text fill="#000000" font-family="sans-serif" font-size="14" lengthAdjust="spacing" textLength="36.0391" x="457.5" y="27.8467">IUser</text><line style="stroke:#181818;stroke-width:0.5;" x1="429.5" x2="495.5391" y1="39" y2="39"/><line style="stroke:#181818;stroke-width:0.5;" x1="429.5" x2="495.5391" y1="47" y2="47"/></g><!--reverse link IUser to User--><g id="link_IUser_User"><path codeLine="25" d="M462.5,73.36 C462.5,88.28 462.5,91.21 462.5,114.82 " fill="none" id="IUser-backto-User" style="stroke:#181818;stroke-width:1;"/><polygon fill="none" points="462.5,55.36,456.5,73.36,468.5,73.36,462.5,55.36" style="stroke:#181818;stroke-width:1;"/></g><!--SRC=[jLHDJy904BtpApRnKgByWQR182Zs946gvwMTjAjjTxExO8Zwtzsl5bf8AKOvjDEPDszcXxU3rq9o74iKvrW850dWw7E0rE_AV7WRzLZj6FYHCswGTeM9hn99cThF1V22245eAVn7BB9daC7UDnuQnX6QC0Pbig9BO9HBhm0XS0gEQOXyjAKaCTXhD0SPcKAU3bY82qqvO0dtfIHovqdTdBLjUs3iWmQjOmOYveH9rO-Bt6fYNUE90SSwi0InoMLL9SDbwgeiE5MONjMOW_hDp7tW1USRyEdw3M9vfeKPvD3xeDrK4o5eJEgnhQXZhKWchN65oLqltXbf4ZzmMlmHzHnAxNR4JZCd3cr7sHXPBTsUqt5YguQaTNoStgXJprFdlHAPkKEtBiT5_v6Q9Vu7sca6yNlKkAKUgqr_xpsZe2HfaRIQ-WNd4WgwXJ-djLVNhOyMNGaVqIN2i1hK2AV0RbrKQzAn6ZC8Kf3ZiNeB_Jv0XaczspfG1zjLmK_iruvSs_HHbS7t83JBFlWQZGpm1m00]--></g></svg>